<svg width="958" height="527" xmlns="http://www.w3.org/2000/svg" xmlns:xlink="http://www.w3.org/1999/xlink" xml:space="preserve" overflow="hidden"><defs><clipPath id="clip0"><rect x="1756" y="318" width="958" height="527"/></clipPath></defs><g clip-path="url(#clip0)" transform="translate(-1756 -318)"><path d="M2099.91 802.872C2100.67 802.893 2101.07 802.965 2101.11 803.089 2101.2 803.336 2100.49 806.681 2099.01 813.123 2098.84 814.279 2098.51 815.848 2098.02 817.83 2097.52 820.803 2096.78 824.354 2095.79 828.483 2095.3 831.126 2094.47 835.09 2093.32 840.376L2092.57 844.835 2090.35 844.835C2088.86 845 2074.18 845.042 2046.3 844.959 2018.41 844.876 2004.39 844.835 2004.22 844.835 2004.06 844.505 2006.53 832.2 2011.65 807.92L2012.64 802.965 2053.97 802.965C2081.69 802.965 2095.87 802.965 2096.53 802.965 2098.02 802.882 2099.14 802.851 2099.91 802.872ZM2149.5 747.468 2149.5 757.378C2149.33 764.48 2149.25 768.114 2149.25 768.279 2149.25 774.721 2149.33 781.328 2149.5 788.1L2149.5 806.929 2162.61 806.929 2175.98 806.929 2175.98 804.947C2176.14 803.46 2176.22 793.88 2176.22 776.207 2176.22 758.534 2176.14 749.367 2175.98 748.706L2175.98 747.468 2162.61 747.468ZM2065.6 679.335 2083.67 679.335C2095.54 679.335 2101.48 679.501 2101.48 679.831 2101.48 680.161 2101.32 682.721 2100.99 687.511 2100.82 690.484 2100.58 693.953 2100.25 697.917 2099.92 700.394 2099.75 702.294 2099.75 703.615 2099.26 708.075 2098.76 713.939 2098.27 721.206 2098.1 723.518 2097.85 725.831 2097.52 728.143 2097.36 731.116 2096.78 738.466 2095.79 750.193 2095.3 757.13 2094.72 764.315 2094.06 771.748 2093.73 774.39 2093.56 776.373 2093.56 777.694 2093.4 778.52 2093.23 780.006 2093.07 782.154 2093.07 782.979 2092.9 785.457 2092.57 789.586 2092.24 793.055 2092.08 794.871 2092.08 795.037L2091.83 795.78 2081.93 795.78C2070.22 795.78 2062.3 795.532 2058.17 795.037L2056.94 795.037 2056.94 793.055C2057.27 788.925 2057.84 781.493 2058.67 770.757 2059 765.802 2059.25 762.003 2059.41 759.36 2059.91 754.24 2060.15 751.102 2060.15 749.945 2060.32 747.798 2060.48 746.064 2060.65 744.743 2060.65 743.586 2060.73 742.347 2060.9 741.026 2060.9 740.2 2060.98 738.714 2061.14 736.567 2061.31 735.411 2061.56 732.768 2061.89 728.639 2061.89 727.152 2062.13 723.436 2062.63 717.49 2063.29 709.561 2063.78 703.037 2064.11 697.917 2064.11 697.091 2064.2 695.605 2064.36 693.457 2064.53 691.31 2064.69 689.989 2064.86 689.493 2065.02 686.521 2065.19 684.208 2065.35 682.556 2065.35 681.07 2065.35 680.161 2065.35 679.831ZM2010.41 679.335 2028.23 679.335 2046.05 679.335 2046.05 680.574C2046.21 681.4 2046.3 682.556 2046.3 684.043 2046.46 686.851 2046.71 689.989 2047.04 693.457 2047.37 699.899 2047.86 707.497 2048.52 716.251 2049.02 725.665 2049.35 730.951 2049.51 732.107 2049.51 732.437 2049.59 734.172 2049.76 737.31 2049.93 740.118 2050.09 742.678 2050.25 744.99 2050.42 747.303 2050.59 749.945 2050.75 752.918 2050.92 756.057 2051.08 758.947 2051.24 761.59 2051.41 762.416 2051.74 766.958 2052.24 775.216 2052.56 781.328 2052.81 785.87 2052.98 788.843 2053.14 791.651 2053.22 793.385 2053.22 794.046L2053.22 795.284 2035.9 795.284C2024.19 795.119 2018.25 795.037 2018.08 795.037 2017.92 794.871 2017.59 790.577 2017.09 782.154 2016.43 772.904 2015.94 765.141 2015.61 758.864 2015.28 752.588 2015.03 749.12 2014.87 748.459 2014.7 745.486 2014.54 742.513 2014.37 739.54 2014.21 737.392 2014 734.461 2013.75 730.745 2013.5 727.028 2013.38 724.509 2013.38 723.188 2013.22 720.71 2013.05 718.068 2012.89 715.26 2012.72 712.782 2012.64 710.965 2012.64 709.809 2012.47 708.983 2012.31 706.506 2012.14 702.377 2011.81 698.082 2011.57 694.944 2011.4 692.962 2011.24 690.319 2011.07 687.759 2010.91 685.282 2010.74 682.474 2010.66 680.822 2010.66 680.327ZM1929.24 636.97 1954.23 636.97 1954.48 639.199 1980.71 830.713 1929.98 830.713 1904.49 639.943C1904.32 638.291 1904.32 637.383 1904.49 637.217 1904.49 637.052 1912.74 636.97 1929.24 636.97ZM1811.68 636.97 1836.68 636.97 1836.68 637.713 1811.44 830.713 1760.7 830.713 1785.95 638.704C1785.95 637.878 1786.03 637.383 1786.19 637.217 1786.36 637.052 1794.85 636.97 1811.68 636.97ZM2131.8 616.901C2131.88 616.901 2133.66 616.901 2137.12 616.901 2139.93 616.901 2147.6 616.901 2160.14 616.901L2178.2 616.901 2178.2 627.803C2178.2 635.235 2178.2 638.993 2178.2 639.075 2178.2 639.158 2186.29 639.241 2202.46 639.323 2218.62 639.406 2226.71 639.447 2226.71 639.447 2226.87 639.612 2226.21 643.081 2224.73 649.853 2223.74 654.312 2223 657.863 2222.5 660.506 2222.17 661.827 2221.8 663.355 2221.39 665.09 2220.98 666.824 2220.77 667.773 2220.77 667.939 2219.45 674.05 2218.79 677.271 2218.79 677.601 2218.79 677.601 2212.03 677.601 2198.5 677.601L2178.2 677.601 2178.2 688.007C2178.04 695.109 2178.04 700.477 2178.2 704.111L2178.2 709.809 2199.98 709.561 2221.76 709.561 2221.76 710.305C2221.76 710.8 2221.59 713.03 2221.26 716.994 2221.1 720.958 2221.02 738.383 2221.02 769.27L2221.02 815.848 2220.27 816.839C2219.61 817.995 2217.39 821.133 2213.59 826.254 2212.27 828.236 2210.79 830.383 2209.14 832.695 2207.98 834.347 2206.5 836.412 2204.68 838.889 2203.69 840.21 2202.79 841.532 2201.96 842.853L2200.72 844.835 2196.52 844.835 2105.2 844.835C2105.03 844.835 2104.95 822.29 2104.95 777.198L2104.95 709.809 2118.06 709.561C2126.97 709.561 2131.47 709.479 2131.55 709.314 2131.64 709.149 2131.68 693.705 2131.68 662.984 2131.68 632.262 2131.72 616.901 2131.8 616.901ZM2031.45 616.901 2054.71 616.901 2078.22 616.901 2078.47 617.397C2078.63 617.892 2078.88 619.131 2079.21 621.113 2080.04 625.077 2080.61 627.885 2080.94 629.537 2081.27 630.197 2081.44 630.693 2081.44 631.024L2081.69 631.767 2097.52 631.767C2108.08 631.767 2113.36 631.849 2113.36 632.015 2113.2 632.345 2112.54 635.235 2111.38 640.686 2110.39 645.971 2109.82 648.944 2109.65 649.605 2109.32 650.431 2108.99 652 2108.66 654.312 2107.01 661.58 2105.86 666.7 2105.2 669.673 2105.03 670.664 2104.87 671.242 2104.7 671.407 2104.54 671.573 2087.62 671.655 2053.97 671.655 2020.31 671.655 2003.4 671.573 2003.23 671.407 2003.07 671.242 2003.81 667.361 2005.46 659.763 2005.63 658.276 2005.87 657.12 2006.2 656.294 2006.37 655.303 2006.86 652.661 2007.69 648.366 2008.84 643.907 2009.59 640.603 2009.92 638.456 2010.41 636.144 2010.82 634.244 2011.15 632.758L2011.4 631.767 2017.59 631.767C2027.98 631.602 2033.26 631.436 2033.43 631.271 2033.43 631.271 2033.34 630.445 2033.18 628.794 2032.35 624.169 2031.78 620.618 2031.45 618.14ZM1843.61 615.167 1899.29 615.167 1899.29 807.672 1872.07 844.587 1821.09 844.587 1830.24 799.992 1843.86 799.992ZM2031.69 505.798 2081.19 505.798 2079.95 508.771 2078.72 511.992 2077.23 516.203C2076.41 517.69 2075.91 519.011 2075.75 520.167L2072.28 529.334 2070.05 535.528C2067.58 542.63 2066.01 546.759 2065.35 547.916L2065.1 548.907 2040.85 548.907C2024.68 548.907 2016.6 548.824 2016.6 548.659L2018.08 544.447 2024.27 526.361 2026 521.406 2027.49 517.442 2028.72 514.221 2029.71 511.248 2031.2 506.789ZM2166.57 502.081 2191.32 502.081 2201.96 502.081 2202.46 503.32 2204.19 508.027C2205.51 511 2206.42 513.23 2206.91 514.717L2209.14 520.415C2209.14 520.91 2209.72 522.562 2210.87 525.37L2212.6 529.83C2213.1 530.821 2213.68 532.307 2214.34 534.289L2215.57 537.51C2215.9 538.171 2216.15 538.832 2216.31 539.492L2218.29 544.943 2219.78 548.907C2219.61 549.072 2211.28 549.155 2194.78 549.155 2178.12 549.155 2169.79 549.072 2169.79 548.907 2169.46 548.576 2169.21 547.998 2169.05 547.172L2167.56 543.456 2165.33 537.262C2162.03 527.683 2159.48 520.745 2157.66 516.451L2156.42 512.735C2155.43 510.422 2154.86 508.853 2154.69 508.027L2152.96 503.815C2152.63 502.99 2152.79 502.494 2153.45 502.329 2153.95 502.164 2158.32 502.081 2166.57 502.081ZM2550.91 449.557 2550.91 511.136 2564.52 511.248 2564.52 449.557ZM2154.94 443.611C2154.77 443.446 2151.15 445.098 2144.05 448.566L2131.92 454.512C2126.97 456.66 2122.68 458.724 2119.05 460.706L2110.89 464.67C2109.24 465.331 2108.41 465.744 2108.41 465.909 2108.41 466.074 2108.5 466.157 2108.66 466.157 2109.16 465.992 2113.53 465.496 2121.78 464.67L2131.68 463.68 2137.12 463.184 2142.57 462.688 2146.28 462.441 2149 462.193 2157.41 461.449 2159.89 461.202 2159.64 460.211C2159.48 457.899 2158.4 453.769 2156.42 447.823 2155.76 445.346 2155.27 443.942 2154.94 443.611ZM2059.16 419.827 2102.72 420.57 2111.14 420.323 2108.66 421.809C2102.56 424.947 2095.46 428.829 2087.38 433.453 2082.92 435.931 2080.7 437.252 2080.7 437.418 2080.7 437.748 2082.59 437.748 2086.39 437.418 2090.84 437.418 2094.8 437.087 2098.27 436.427L2101.24 435.931C2102.72 435.931 2104.29 435.435 2105.94 434.444 2107.26 433.618 2108.5 433.123 2109.65 432.958L2113.86 430.976 2115.84 429.985 2120.54 428.003C2121.36 427.838 2122.44 427.342 2123.76 426.516 2124.25 426.516 2124.83 426.31 2125.49 425.897 2126.15 425.484 2126.56 425.278 2126.73 425.278L2129.7 424.039 2131.43 423.295 2163.6 423.295C2185.21 423.295 2196.1 423.378 2196.27 423.543 2196.43 423.543 2196.35 423.708 2196.02 424.039 2194.87 424.534 2193.71 425.03 2192.56 425.525L2187.36 428.003 2182.16 430.233 2175.98 433.453 2171.03 435.683C2169.05 436.674 2165.91 438.161 2161.62 440.143L2157.41 441.877C2157.25 441.877 2157.17 441.96 2157.17 442.125L2158.4 442.125C2159.06 442.29 2160.47 442.373 2162.61 442.373L2168.3 442.373 2175.48 442.373 2196.76 442.125 2201.47 441.877 2201.71 442.868 2202.7 447.08 2204.93 456.247 2206.91 463.432 2207.9 467.148 2209.88 475.572C2211.2 480.692 2211.86 483.417 2211.86 483.748 2214.34 493.657 2215.49 498.695 2215.33 498.86 2215.33 499.025 2200.39 499.108 2170.53 499.108 2169.87 499.108 2169.54 499.025 2169.54 498.86L2168.8 496.135 2168.3 493.657 2166.32 493.905 2164.1 493.905 2162.12 494.153C2159.48 494.318 2156.84 494.566 2154.2 494.896 2150.57 495.062 2148.67 495.227 2148.51 495.392 2148.34 495.392 2148.26 500.265 2148.26 510.009L2148.26 524.875 2146.28 527.6 2144.55 529.83 2143.06 532.06 2140.09 536.023C2138.94 537.841 2137.7 539.575 2136.38 541.226L2132.42 546.677 2130.69 548.907 2104.7 548.907C2087.38 548.907 2078.72 548.824 2078.72 548.659L2080.7 540.235C2084.65 523.719 2086.8 515.295 2087.13 514.964L2087.38 514.221 2093.07 514.221 2099.01 514.221 2099.01 506.541 2099.01 498.613 2019.57 505.054C2019.4 504.889 2019.32 502.99 2019.32 499.356L2019.32 492.667 2019.32 484.739 2019.32 475.572 2021.05 474.828 2025.01 473.094 2027.49 471.855 2028.48 471.607C2033.92 468.965 2039.37 466.57 2044.81 464.423L2051.74 461.202 2050.25 461.449C2046.96 461.78 2042.67 462.11 2037.39 462.441 2032.11 462.771 2028.31 462.936 2026 462.936L2026 448.319C2026 438.904 2026.08 434.114 2026.25 433.949L2028.48 432.462 2032.19 430.48 2035.16 428.994 2044.07 424.287 2050.25 421.314 2052.98 420.075C2053.47 419.579 2055.53 419.497 2059.16 419.827ZM1854.99 416.854 1915.13 416.854C1955.22 416.854 1975.27 416.936 1975.27 417.102 1975.27 417.267 1974.11 421.974 1971.8 431.224 1971.47 432.38 1971.06 434.155 1970.57 436.551 1970.07 438.945 1969.74 440.473 1969.58 441.134 1968.26 446.254 1967.51 449.144 1967.35 449.805L1967.1 450.548 1950.03 450.548 1933.2 450.548 1933.2 456.99 1933.2 463.432 1952.5 463.432C1965.53 463.432 1972.09 463.514 1972.17 463.68 1972.26 463.845 1972.05 464.753 1971.56 466.405 1970.57 470.204 1968.92 476.645 1966.61 485.73 1965.12 492.336 1964.3 495.888 1964.13 496.383L1963.88 497.126 1948.54 497.126 1933.2 497.126 1933.2 497.869C1933.2 498.2 1933.2 500.512 1933.2 504.806 1933.2 507.119 1933.2 509.431 1933.2 511.744L1933.2 512.735 1954.97 512.487C1969.49 512.487 1976.75 512.528 1976.75 512.611 1976.75 512.693 1976.67 513.313 1976.51 514.469 1976.18 515.46 1975.35 518.846 1974.03 524.627 1973.21 528.426 1972.63 531.151 1972.3 532.803 1971.47 536.436 1970.15 541.557 1968.34 548.164L1968.34 548.659 1964.63 548.907C1962.48 549.072 1942.23 549.113 1903.87 549.031 1865.51 548.948 1846.33 548.907 1846.33 548.907 1846.17 548.742 1846.17 548.246 1846.33 547.42 1846.83 545.438 1847.4 542.3 1848.06 538.006 1849.22 531.894 1849.88 528.508 1850.04 527.848 1850.54 525.865 1851.03 523.553 1851.53 520.91 1852.19 516.781 1852.6 514.551 1852.77 514.221L1853.01 512.735 1871.08 512.487 1888.9 512.487 1888.9 504.806 1888.9 497.126 1869.59 497.126C1856.56 497.126 1850.04 497.044 1850.04 496.878 1850.04 496.218 1851.53 488.95 1854.5 475.076 1855.49 470.782 1856.15 467.809 1856.48 466.157 1856.81 464.67 1857.01 463.845 1857.1 463.68 1857.18 463.514 1862.5 463.432 1873.06 463.432L1888.9 463.432 1888.9 457.733C1888.9 456.907 1888.9 456.081 1888.9 455.256 1888.9 454.43 1888.9 453.769 1888.9 453.274 1888.9 452.778 1888.9 452.324 1888.9 451.911 1888.9 451.498 1888.9 451.292 1888.9 451.292L1888.9 450.548 1868.11 450.548C1854.25 450.548 1847.32 450.548 1847.32 450.548 1847.32 450.218 1849.3 441.464 1853.26 424.287 1854.25 419.992 1854.74 417.762 1854.74 417.597ZM1772.95 412.394C1779.47 412.394 1782.81 412.394 1782.98 412.394 1783.14 412.89 1782.44 435.559 1780.87 480.403 1779.3 525.246 1778.52 547.998 1778.52 548.659 1778.52 548.824 1775.18 548.907 1768.5 548.907 1761.82 548.907 1758.47 548.824 1758.47 548.659 1761.11 468.552 1762.52 426.021 1762.68 421.066 1762.85 415.45 1762.97 412.601 1763.05 412.518 1763.14 412.435 1766.44 412.394 1772.95 412.394ZM1820.1 412.146 1830.24 412.146 1840.64 412.146 1840.64 417.597C1840.8 425.03 1841.96 467.23 1844.1 544.2L1844.35 548.907 1834.2 549.155 1823.81 549.155 1823.81 548.411C1823.81 548.081 1823.27 528.137 1822.2 488.579 1821.13 449.021 1820.43 425.113 1820.1 416.854ZM2277.44 378.204 2283.63 378.204C2286.76 378.204 2296.58 378.204 2313.08 378.204 2330.57 378.204 2357.87 378.204 2395 378.204L2452.91 378.204 2452.91 392.574 2452.91 406.944 2451.17 407.935C2449.69 408.595 2448.04 409.339 2446.23 410.165 2443.09 411.651 2441.44 412.477 2441.28 412.642 2441.11 412.642 2440.82 412.724 2440.41 412.89 2440 413.055 2439.58 413.22 2439.17 413.385 2438.76 413.55 2438.31 413.757 2437.81 414.005 2437.32 414.253 2436.9 414.459 2436.57 414.624L2433.85 415.863 2451.42 416.111 2469.24 416.111 2469.24 467.644 2469.24 519.176 2467.76 521.158C2464.95 524.462 2461.32 528.921 2456.87 534.537 2456.7 534.867 2456.45 535.198 2456.12 535.528 2455.79 535.858 2455.55 536.147 2455.38 536.395 2455.22 536.643 2455.09 536.808 2455.01 536.891 2454.93 536.973 2453.32 538.914 2450.18 542.713 2447.38 546.347 2445.81 548.287 2445.48 548.535 2445.15 548.783 2417.68 548.907 2363.07 548.907L2261.11 548.659 2261.11 469.626 2261.11 417.597 2282.39 417.597 2303.92 417.597 2303.92 421.561 2303.92 425.525 2319.27 425.525 2334.86 425.525 2335.11 426.021C2335.44 427.012 2336.1 429.985 2337.09 434.94 2337.25 435.601 2337.42 436.592 2337.58 437.913 2338.24 440.556 2339.31 445.511 2340.8 452.778 2341.29 455.256 2341.71 457.238 2342.04 458.724 2342.37 460.211 2342.41 460.995 2342.16 461.078 2341.91 461.16 2336.67 461.202 2326.44 461.202L2311.1 461.202 2310.85 460.211C2310.85 460.046 2310.81 459.839 2310.73 459.591 2310.65 459.344 2310.61 459.096 2310.61 458.848 2310.61 458.601 2310.56 458.312 2310.48 457.981 2310.4 457.651 2310.36 457.321 2310.36 456.99 2310.19 456.164 2309.95 455.008 2309.62 453.522 2309.29 452.2 2308.87 450.135 2308.38 447.328 2307.72 444.024 2307.22 441.629 2306.89 440.143 2306.4 437.996 2306.15 436.592 2306.15 435.931L2303.92 427.012C2303.76 427.177 2303.68 433.495 2303.68 445.965 2303.68 458.435 2303.68 470.823 2303.68 483.128 2303.68 495.433 2303.76 501.586 2303.92 501.586 2303.92 501.421 2304.01 501.09 2304.17 500.595 2305.16 495.805 2306.81 488.455 2309.12 478.545 2309.45 477.223 2309.86 475.406 2310.36 473.094 2310.85 470.782 2311.1 469.46 2311.1 469.13L2311.84 466.405 2317.78 466.405C2321.58 466.239 2325.87 466.239 2330.65 466.405 2335.77 466.405 2338.74 466.405 2339.56 466.405 2340.55 466.405 2341.13 466.446 2341.29 466.528 2341.46 466.611 2341.54 466.735 2341.54 466.9 2341.54 467.065 2341.5 467.272 2341.42 467.52 2341.33 467.767 2341.25 468.098 2341.17 468.511 2341.09 468.924 2340.96 469.295 2340.8 469.626 2340.47 471.112 2340.14 472.516 2339.81 473.837 2339.48 475.819 2338.98 478.049 2338.32 480.527 2337.5 483.5 2337 485.564 2336.84 486.721 2335.85 491.015 2334.53 496.631 2332.88 503.568L2331.89 508.275 2322.48 508.275C2314.07 508.275 2309.37 508.275 2308.38 508.275L2303.68 508.275 2303.92 511.496C2303.92 513.478 2303.92 514.551 2303.92 514.717 2304.09 514.717 2318.44 514.717 2346.98 514.717 2375.53 514.717 2395.9 514.717 2408.11 514.717 2420.32 514.717 2426.47 514.634 2426.55 514.469 2426.63 514.304 2426.59 513.23 2426.43 511.248L2426.43 508.275 2412.32 508.275C2403.08 508.275 2398.38 508.193 2398.21 508.027 2397.88 507.862 2395.9 499.604 2392.27 483.252 2391.78 480.94 2391.2 478.297 2390.54 475.324 2389.22 469.708 2388.64 466.818 2388.81 466.652 2388.81 466.652 2393.84 466.652 2403.91 466.652L2418.75 466.652 2419.25 469.13C2419.74 470.947 2420.16 472.681 2420.49 474.333 2422.63 483.582 2423.87 489.115 2424.2 490.932 2424.2 491.428 2424.53 493.162 2425.19 496.135 2425.85 498.447 2426.26 500.099 2426.43 501.09L2426.67 468.139C2426.84 439.895 2426.67 423.874 2426.18 420.075L2425.93 418.836 2420.49 421.066C2416.2 422.883 2412.24 424.782 2408.61 426.764L2406.63 427.755 2408.11 428.003C2409.1 428.003 2412.07 428.085 2417.02 428.25 2421.97 428.416 2424.61 428.581 2424.94 428.746 2425.27 428.911 2425.44 429.324 2425.44 429.985 2425.11 432.958 2423.62 440.473 2420.98 452.531 2420.49 455.008 2419.99 457.486 2419.5 459.963L2419.25 461.449 2404.4 461.449C2394.5 461.449 2389.43 461.408 2389.18 461.326 2388.93 461.243 2388.89 461.119 2389.06 460.954 2389.22 460.128 2389.55 458.229 2390.05 455.256 2391.04 449.144 2392.03 444.272 2393.02 440.638 2393.02 440.473 2393.1 439.936 2393.26 439.028 2393.43 438.119 2393.59 437.418 2393.76 436.922 2394.09 435.601 2394.34 434.609 2394.5 433.949 2394.67 433.453 2394.75 433.123 2394.75 432.958 2394.58 432.958 2393.02 433.949 2390.05 435.931L2386.83 437.913 2386.83 462.936 2386.83 487.959 2379.41 499.108 2371.98 510.257 2354.41 510.257C2342.7 510.257 2336.84 510.175 2336.84 510.009 2336.84 510.009 2336.84 509.927 2336.84 509.761 2336.84 509.596 2336.92 509.431 2337.09 509.266 2337.09 508.936 2338.16 504.476 2340.3 495.888 2342.45 487.299 2343.6 482.756 2343.77 482.261 2343.93 481.6 2344.35 481.27 2345.01 481.27L2346.24 481.27 2346.24 454.265 2346.24 427.012 2351.69 424.039C2355.98 421.726 2358.12 420.488 2358.12 420.323 2359.94 419.166 2363.07 417.432 2367.53 415.12 2367.53 415.12 2368.43 414.542 2370.25 413.385 2371.57 412.724 2372.64 412.146 2373.47 411.651 2374.13 411.321 2374.46 411.073 2374.46 410.908 2374.46 410.743 2357.38 410.66 2323.23 410.66 2312.67 410.825 2303.59 410.867 2296 410.784 2288.41 410.701 2282.52 410.66 2278.31 410.66 2274.1 410.66 2272.04 410.66 2272.12 410.66 2272.2 410.66 2272.29 410.371 2272.37 409.793 2272.45 409.215 2272.58 408.472 2272.74 407.563 2272.91 406.655 2273.07 405.622 2273.24 404.466 2273.4 403.31 2273.61 401.906 2273.85 400.254 2274.1 398.603 2274.39 397.033 2274.72 395.547 2276.21 385.802 2277.03 380.516 2277.2 379.691ZM2550.91 368.294 2550.91 415.005 2564.52 415.101 2564.52 368.294ZM1893.35 355.907C1893.19 356.732 1893.15 359.829 1893.23 365.197 1893.31 370.565 1893.39 373.249 1893.48 373.249 1893.56 373.249 1900.03 373.249 1912.9 373.249L1932.45 373.249 1932.21 364.578 1932.21 355.907 1912.66 355.907C1899.79 355.907 1893.35 355.907 1893.35 355.907ZM1851.53 321.716 1890.88 321.716C1919.59 321.881 1940.04 321.964 1952.25 321.964L1974.53 321.964 1974.53 350.456 1974.53 378.948 1973.78 379.938C1973.45 380.269 1972.46 381.632 1970.81 384.027 1969.16 386.421 1968.09 387.949 1967.6 388.61 1967.27 389.105 1965.7 391.418 1962.89 395.547 1962.23 396.373 1960.67 398.603 1958.19 402.236 1957.2 403.723 1956.38 404.879 1955.72 405.705L1954.48 407.687 1903.5 407.439 1852.27 407.439 1852.27 398.52C1852.27 393.07 1852.19 384.068 1852.02 371.515 1851.69 360.118 1851.53 348.804 1851.53 337.572ZM2423.21 320.478 2446.23 320.725 2446.23 325.185 2445.98 329.645 2446.72 329.645C2451.5 329.645 2456.54 329.645 2461.82 329.645L2476.17 329.645 2475.92 330.388C2475.92 330.553 2475.88 330.801 2475.8 331.131 2475.72 331.461 2475.68 331.626 2475.68 331.626 2475.51 332.122 2475.02 334.187 2474.19 337.82 2473.37 341.95 2472.71 344.84 2472.21 346.492 2469.74 357.228 2468.42 362.844 2468.25 363.339L2468 363.834 2457.36 363.834 2446.97 363.834 2446.97 368.294C2446.97 371.102 2446.97 372.919 2446.97 373.745L2446.97 374.488 2423.21 374.488 2399.45 374.488 2399.45 369.285 2399.45 364.33 2366.29 364.33 2332.88 364.33 2332.88 365.569C2332.88 365.899 2332.88 367.633 2332.88 370.772 2332.88 373.58 2332.8 375.025 2332.63 375.107 2332.47 375.19 2324.79 375.148 2309.62 374.983L2286.6 374.983 2286.6 369.533 2286.6 364.33 2271.01 364.33 2255.17 364.33 2255.42 363.339C2255.58 362.348 2256.16 359.705 2257.15 355.411 2258.63 349.134 2260.12 342.858 2261.6 336.582 2261.77 335.756 2261.98 334.847 2262.22 333.856 2262.47 332.865 2262.68 332.122 2262.84 331.626 2263.01 331.131 2263.09 330.801 2263.09 330.635L2263.34 329.645 2274.97 329.645 2286.6 329.892 2286.6 325.185 2286.6 320.725 2309.62 320.725 2332.63 320.725 2332.63 325.185C2332.63 328.158 2332.67 329.686 2332.75 329.768 2332.84 329.851 2344.1 329.892 2366.54 329.892 2388.97 329.892 2400.23 329.851 2400.32 329.768 2400.4 329.686 2400.36 328.819 2400.19 327.167 2400.03 323.699 2399.95 321.551 2399.95 320.725 2400.11 320.56 2407.87 320.478 2423.21 320.478ZM2125.98 320.23 2129.94 320.23 2151.47 320.23C2162.36 320.23 2167.89 320.312 2168.06 320.478 2168.22 320.478 2168.3 324.194 2168.3 331.626L2168.3 340.298 2172.76 340.298 2178.95 340.298 2180.43 340.05 2180.93 338.564 2184.14 324.937 2184.39 324.194 2204.68 324.194 2224.98 324.194 2224.48 326.176C2223.33 331.792 2221.35 340.05 2218.54 350.951 2218.54 352.768 2218.21 354.544 2217.55 356.278 2216.89 358.012 2216.4 359.375 2216.07 360.366L2214.58 366.064C2213.76 367.716 2213.35 369.12 2213.35 370.276L2213.1 371.515 2190.08 371.515 2167.31 371.515 2167.31 372.258 2167.31 379.195 2167.31 384.646 2196.02 384.646 2224.48 384.646 2223.74 388.115 2222.5 394.308 2221.26 400.007C2221.26 400.832 2221.06 401.947 2220.65 403.351 2220.23 404.755 2220.03 405.705 2220.03 406.2L2218.54 413.385 2217.55 417.597C2217.55 417.762 2205.34 417.845 2180.93 417.845L2144.3 417.845 2142.81 415.863C2142.48 415.698 2141.99 415.161 2141.33 414.253 2140.67 413.344 2140.26 412.724 2140.09 412.394L2127.96 397.033 2126.23 394.556 2126.23 357.393ZM2063.37 320.23 2083.42 320.23 2103.71 320.23 2103.71 327.91 2103.96 335.838 2113.36 335.838 2123.51 335.838C2123.67 335.838 2123.76 336.004 2123.76 336.334 2123.76 336.004 2123.34 337.82 2122.52 341.784L2119.55 356.154C2118.06 363.256 2117.24 366.89 2117.07 367.055 2117.07 367.221 2115.18 367.303 2111.38 367.303L2104.7 367.303 2103.71 367.551 2103.71 374.983 2103.96 382.664 2104.95 382.416 2119.05 381.921 2120.29 381.921 2120.29 398.272 2120.04 415.615 2120.04 416.606 2007.94 419.084 2007.94 413.385 2007.94 405.705 2007.94 397.281 2007.94 389.353 2007.94 388.858 2007.94 386.876 2018.33 386.38 2018.33 357.145 2018.33 327.662 2036.89 327.91 2055.45 327.91 2055.7 356.402 2055.7 384.646 2057.68 384.646 2061.64 384.646 2063.12 384.646 2063.12 352.438C2063.12 330.966 2063.21 320.23 2063.37 320.23ZM1808.22 320.23C1808.38 320.23 1815.19 320.23 1828.64 320.23 1842.08 320.23 1848.89 320.312 1849.05 320.478 1849.05 320.478 1848.23 323.946 1846.58 330.883 1844.93 337.655 1843.86 342.28 1843.36 344.758 1843.03 346.409 1842.37 349.217 1841.38 353.181 1840.89 355.659 1840.23 358.384 1839.4 361.357L1838.91 364.33 1833.96 364.33C1830.82 364.495 1828.26 364.578 1826.28 364.578L1823.31 364.578 1823.56 368.79 1823.56 373.001 1824.06 373.001C1824.06 373.001 1824.3 373.001 1824.8 373.001 1825.29 373.001 1825.95 373.001 1826.78 373.001 1827.6 373.001 1828.55 373.001 1829.63 373.001 1830.7 373.001 1831.89 373.001 1833.21 373.001 1834.53 373.001 1835.77 373.001 1836.93 373.001L1849.3 373.001 1849.3 373.497C1849.3 373.827 1848.81 375.727 1847.82 379.195 1845.67 387.784 1843.61 396.125 1841.63 404.219 1841.3 405.375 1841.09 405.994 1841.01 406.077 1840.93 406.159 1836.84 406.2 1828.76 406.2L1816.63 406.2 1816.63 548.907 1801.29 548.907 1786.19 548.907 1785.95 406.2 1785.45 406.2C1785.12 406.2 1780.09 406.2 1770.35 406.2L1756 406.2 1756.25 405.21C1756.41 404.549 1757.07 401.493 1758.23 396.042 1759.55 390.262 1760.21 387.123 1760.21 386.628 1760.54 385.472 1761.2 382.747 1762.19 378.452 1762.35 377.296 1762.6 376.057 1762.93 374.736L1763.42 373.249 1772.33 373.001C1773.82 373.001 1775.34 373.001 1776.91 373.001 1778.48 373.001 1779.76 373.001 1780.75 373.001 1781.74 373.001 1782.32 373.001 1782.48 373.001L1783.22 373.001 1783.22 369.037 1783.22 365.321 1777.28 365.321C1772.83 365.486 1769.36 365.569 1766.89 365.569L1762.43 365.569 1762.43 347.73 1762.43 330.14 1776.29 329.892C1791.47 329.727 1800.88 329.479 1804.51 329.149 1805.5 328.984 1805.99 328.819 1805.99 328.654 1805.99 328.488 1806.36 327.084 1807.1 324.442 1807.85 321.799 1808.22 320.395 1808.22 320.23ZM2625.15 318 2670.94 318 2668.21 330.122 2713.5 330.388 2713.5 359.623 2714 521.406 2696.68 546.925 2623.17 546.925 2631.09 511 2669.7 511.248 2669.7 485.482 2628.12 485.482 2611.3 409.669 2654.6 409.669 2669.7 477.677 2669.7 365.817 2660.17 365.817 2653.86 393.813 2608.08 393.813ZM2533.59 318 2581.84 318 2578.51 332.723 2607.09 332.865 2607.09 362.1 2607.58 521.406 2590.26 546.925 2550.91 546.925 2523.19 546.925 2507.6 546.925 2507.6 368.294 2507.6 362.1 2507.6 332.37 2530.3 332.483Z" fill="#E46C0A" fill-rule="evenodd"/></g></svg>